<svg width="22" height="22" viewBox="0 0 22 22" fill="none" xmlns="http://www.w3.org/2000/svg">
<path d="M1.75 11C1.75 5.89137 5.89137 1.75 11 1.75C16.1086 1.75 20.25 5.89137 20.25 11C20.25 13.5545 19.2155 15.866 17.5407 17.5407C17.2478 17.8336 17.2478 18.3085 17.5407 18.6014C17.8336 18.8943 18.3085 18.8943 18.6014 18.6014C20.5459 16.6569 21.75 13.9683 21.75 11C21.75 5.06294 16.9371 0.25 11 0.25C5.06294 0.25 0.25 5.06294 0.25 11C0.25 13.9683 1.45406 16.6569 3.3986 18.6014C3.6915 18.8943 4.16637 18.8943 4.45926 18.6014C4.75216 18.3085 4.75216 17.8336 4.45926 17.5407C2.78452 15.866 1.75 13.5545 1.75 11Z" fill="#8BA3CB"/>
<path d="M5.75 11C5.75 8.1005 8.1005 5.75 11 5.75C13.8995 5.75 16.25 8.1005 16.25 11C16.25 12.45 15.6632 13.7614 14.7123 14.7123C14.4194 15.0052 14.4194 15.4801 14.7123 15.773C15.0052 16.0659 15.4801 16.0659 15.773 15.773C16.9937 14.5523 17.75 12.8638 17.75 11C17.75 7.27208 14.7279 4.25 11 4.25C7.27208 4.25 4.25 7.27208 4.25 11C4.25 12.8638 5.00634 14.5523 6.22703 15.773C6.51992 16.0659 6.9948 16.0659 7.28769 15.773C7.58058 15.4801 7.58058 15.0052 7.28769 14.7123C6.3368 13.7614 5.75 12.45 5.75 11Z" fill="#8BA3CB"/>
<path fill-rule="evenodd" clip-rule="evenodd" d="M8.25 11C8.25 9.48122 9.48122 8.25 11 8.25C12.5188 8.25 13.75 9.48122 13.75 11C13.75 12.5188 12.5188 13.75 11 13.75C9.48122 13.75 8.25 12.5188 8.25 11ZM11 9.75C10.3096 9.75 9.75 10.3096 9.75 11C9.75 11.6904 10.3096 12.25 11 12.25C11.6904 12.25 12.25 11.6904 12.25 11C12.25 10.3096 11.6904 9.75 11 9.75Z" fill="#8BA3CB"/>
<path fill-rule="evenodd" clip-rule="evenodd" d="M12.393 14.7434C12.0153 14.4757 11.6097 14.2765 11.1173 14.2528C11.0392 14.2491 10.9608 14.2491 10.8827 14.2528C10.3903 14.2765 9.98466 14.4757 9.60696 14.7434C9.25495 14.993 8.86615 15.3479 8.41455 15.7602L8.33587 15.832C7.33098 16.7493 6.51836 17.4911 6.00062 18.1089C5.50359 18.702 5.04684 19.4464 5.34164 20.2757C5.38098 20.3864 5.42962 20.4935 5.48687 20.5959C5.89759 21.331 6.73235 21.5508 7.53456 21.6483C8.3717 21.75 9.51526 21.75 10.9436 21.75H11.0563C12.4847 21.75 13.6283 21.75 14.4654 21.6483C15.2676 21.5508 16.1024 21.331 16.5131 20.5959C16.5704 20.4935 16.619 20.3864 16.6584 20.2757C16.9532 19.4464 16.4964 18.702 15.9994 18.1089C15.4816 17.4911 14.669 16.7493 13.6641 15.832L13.5854 15.7602C13.1338 15.3479 12.745 14.993 12.393 14.7434ZM10.4744 15.9671C10.7245 15.7899 10.8549 15.7559 10.9547 15.7511C10.9849 15.7496 11.0151 15.7496 11.0453 15.7511C11.1451 15.7559 11.2755 15.7899 11.5256 15.9671C11.7928 16.1566 12.1132 16.4473 12.607 16.898C13.6685 17.867 14.4046 18.5412 14.8497 19.0724C15.0699 19.3352 15.1778 19.5162 15.224 19.6375C15.2605 19.7334 15.249 19.7631 15.2455 19.772L15.245 19.7733C15.2341 19.804 15.2204 19.8344 15.2037 19.8643C15.1842 19.8991 15.0659 20.0643 14.2845 20.1592C13.549 20.2486 12.4975 20.25 11 20.25C9.50251 20.25 8.45103 20.2486 7.71554 20.1592C6.93413 20.0643 6.81578 19.8991 6.79635 19.8643C6.77964 19.8344 6.7659 19.804 6.75501 19.7733L6.75452 19.772C6.75105 19.7631 6.7395 19.7334 6.77599 19.6375C6.82219 19.5162 6.93006 19.3352 7.15029 19.0724C7.59539 18.5412 8.33155 17.867 9.393 16.898C9.88675 16.4473 10.2072 16.1566 10.4744 15.9671Z" fill="#8BA3CB"/>
</svg>
