<svg width="14" height="14" viewBox="0 0 14 14" fill="none" xmlns="http://www.w3.org/2000/svg">
<path fill-rule="evenodd" clip-rule="evenodd" d="M3.29802 0.166016C2.69904 0.165997 2.19955 0.165982 1.80303 0.219292C1.3845 0.275562 1.00664 0.399342 0.702989 0.702989C0.399342 1.00664 0.275562 1.3845 0.219292 1.80303C0.165982 2.19955 0.165997 2.69902 0.166016 3.298V3.36735C0.165997 3.96633 0.165982 4.46582 0.219292 4.86234C0.275562 5.28087 0.399342 5.65873 0.702989 5.96238C1.00664 6.26603 1.3845 6.38981 1.80303 6.44608C2.19955 6.49939 2.69902 6.49937 3.298 6.49935H3.36735C3.96633 6.49937 4.46582 6.49939 4.86234 6.44608C5.28087 6.38981 5.65873 6.26603 5.96238 5.96238C6.26603 5.65873 6.38981 5.28087 6.44608 4.86234C6.49939 4.46582 6.49937 3.96635 6.49935 3.36737V3.29802C6.49937 2.69904 6.49939 2.19955 6.44608 1.80303C6.38981 1.3845 6.26603 1.00664 5.96238 0.702989C5.65873 0.399342 5.28087 0.275562 4.86234 0.219292C4.46582 0.165982 3.96635 0.165997 3.36737 0.166016H3.29802ZM1.4101 1.4101C1.49697 1.32322 1.62864 1.25174 1.93628 1.21037C2.2583 1.16708 2.69001 1.16602 3.33268 1.16602C3.97536 1.16602 4.40706 1.16708 4.72909 1.21037C5.03673 1.25174 5.1684 1.32322 5.25527 1.4101C5.34215 1.49697 5.41363 1.62864 5.45499 1.93628C5.49829 2.2583 5.49935 2.69001 5.49935 3.33268C5.49935 3.97536 5.49829 4.40706 5.45499 4.72909C5.41363 5.03673 5.34215 5.1684 5.25527 5.25527C5.1684 5.34215 5.03673 5.41363 4.72909 5.45499C4.40706 5.49829 3.97536 5.49935 3.33268 5.49935C2.69001 5.49935 2.2583 5.49829 1.93628 5.45499C1.62864 5.41363 1.49697 5.34215 1.4101 5.25527C1.32322 5.1684 1.25174 5.03673 1.21037 4.72909C1.16708 4.40706 1.16602 3.97536 1.16602 3.33268C1.16602 2.69001 1.16708 2.2583 1.21037 1.93628C1.25174 1.62864 1.32322 1.49697 1.4101 1.4101Z" fill="#00A2EB"/>
<path fill-rule="evenodd" clip-rule="evenodd" d="M10.6314 7.49935C10.0324 7.49933 9.53288 7.49931 9.13636 7.55262C8.71783 7.60889 8.33997 7.73267 8.03632 8.03632C7.73267 8.33997 7.60889 8.71783 7.55262 9.13636C7.49931 9.53288 7.49933 10.0324 7.49935 10.6314V10.7007C7.49933 11.2997 7.49931 11.7991 7.55262 12.1957C7.60889 12.6142 7.73267 12.9921 8.03632 13.2957C8.33997 13.5994 8.71783 13.7231 9.13636 13.7794C9.53287 13.8327 10.0323 13.8327 10.6313 13.8327H10.7007C11.2996 13.8327 11.7992 13.8327 12.1957 13.7794C12.6142 13.7231 12.9921 13.5994 13.2957 13.2957C13.5994 12.9921 13.7231 12.6142 13.7794 12.1957C13.8327 11.7992 13.8327 11.2997 13.8327 10.7007V10.6314C13.8327 10.0324 13.8327 9.53287 13.7794 9.13636C13.7231 8.71783 13.5994 8.33997 13.2957 8.03632C12.9921 7.73267 12.6142 7.60889 12.1957 7.55262C11.7991 7.49931 11.2997 7.49933 10.7007 7.49935H10.6314ZM8.74343 8.74343C8.83031 8.65655 8.96197 8.58507 9.26961 8.54371C9.59164 8.50041 10.0233 8.49935 10.666 8.49935C11.3087 8.49935 11.7404 8.50041 12.0624 8.54371C12.3701 8.58507 12.5017 8.65655 12.5886 8.74343C12.6755 8.83031 12.747 8.96197 12.7883 9.26961C12.8316 9.59164 12.8327 10.0233 12.8327 10.666C12.8327 11.3087 12.8316 11.7404 12.7883 12.0624C12.747 12.3701 12.6755 12.5017 12.5886 12.5886C12.5017 12.6755 12.3701 12.747 12.0624 12.7883C11.7404 12.8316 11.3087 12.8327 10.666 12.8327C10.0233 12.8327 9.59164 12.8316 9.26961 12.7883C8.96197 12.747 8.83031 12.6755 8.74343 12.5886C8.65655 12.5017 8.58507 12.3701 8.54371 12.0624C8.50041 11.7404 8.49935 11.3087 8.49935 10.666C8.49935 10.0233 8.50041 9.59164 8.54371 9.26961C8.58507 8.96197 8.65655 8.83031 8.74343 8.74343Z" fill="#00A2EB"/>
<path fill-rule="evenodd" clip-rule="evenodd" d="M3.29802 7.49935H3.36735C3.96634 7.49933 4.46582 7.49931 4.86234 7.55262C5.28087 7.60889 5.65873 7.73267 5.96238 8.03632C6.26603 8.33997 6.38981 8.71783 6.44608 9.13636C6.49939 9.53288 6.49937 10.0324 6.49935 10.6313V10.7007C6.49937 11.2997 6.49939 11.7992 6.44608 12.1957C6.38981 12.6142 6.26603 12.9921 5.96238 13.2957C5.65873 13.5994 5.28087 13.7231 4.86234 13.7794C4.46582 13.8327 3.96636 13.8327 3.36739 13.8327H3.29802C2.69905 13.8327 2.19954 13.8327 1.80303 13.7794C1.3845 13.7231 1.00664 13.5994 0.702989 13.2957C0.399342 12.9921 0.275562 12.6142 0.219292 12.1957C0.165982 11.7992 0.165997 11.2997 0.166016 10.7007V10.6314C0.165997 10.0324 0.165982 9.53288 0.219292 9.13636C0.275562 8.71783 0.399342 8.33997 0.702989 8.03632C1.00664 7.73267 1.3845 7.60889 1.80303 7.55262C2.19955 7.49931 2.69903 7.49933 3.29802 7.49935ZM1.93628 8.54371C1.62864 8.58507 1.49697 8.65655 1.4101 8.74343C1.32322 8.83031 1.25174 8.96197 1.21037 9.26961C1.16708 9.59164 1.16602 10.0233 1.16602 10.666C1.16602 11.3087 1.16708 11.7404 1.21037 12.0624C1.25174 12.3701 1.32322 12.5017 1.4101 12.5886C1.49697 12.6755 1.62864 12.747 1.93628 12.7883C2.2583 12.8316 2.69001 12.8327 3.33268 12.8327C3.97536 12.8327 4.40706 12.8316 4.72909 12.7883C5.03673 12.747 5.1684 12.6755 5.25527 12.5886C5.34215 12.5017 5.41363 12.3701 5.45499 12.0624C5.49829 11.7404 5.49935 11.3087 5.49935 10.666C5.49935 10.0233 5.49829 9.59164 5.45499 9.26961C5.41363 8.96197 5.34215 8.83031 5.25527 8.74343C5.1684 8.65655 5.03673 8.58507 4.72909 8.54371C4.40706 8.50041 3.97536 8.49935 3.33268 8.49935C2.69001 8.49935 2.2583 8.50041 1.93628 8.54371Z" fill="#00A2EB"/>
<path fill-rule="evenodd" clip-rule="evenodd" d="M10.6314 0.166016C10.0324 0.165997 9.53288 0.165982 9.13636 0.219292C8.71783 0.275562 8.33997 0.399342 8.03632 0.702989C7.73267 1.00664 7.60889 1.3845 7.55262 1.80303C7.49931 2.19955 7.49933 2.69903 7.49935 3.29802V3.36735C7.49933 3.96634 7.49931 4.46582 7.55262 4.86234C7.60889 5.28087 7.73267 5.65873 8.03632 5.96238C8.33997 6.26603 8.71783 6.38981 9.13636 6.44608C9.53288 6.49939 10.0324 6.49937 10.6313 6.49935H10.7007C11.2997 6.49937 11.7992 6.49939 12.1957 6.44608C12.6142 6.38981 12.9921 6.26603 13.2957 5.96238C13.5994 5.65873 13.7231 5.28087 13.7794 4.86234C13.8327 4.46582 13.8327 3.96635 13.8327 3.36737V3.29802C13.8327 2.69904 13.8327 2.19955 13.7794 1.80303C13.7231 1.3845 13.5994 1.00664 13.2957 0.702989C12.9921 0.399342 12.6142 0.275562 12.1957 0.219292C11.7992 0.165982 11.2997 0.165997 10.7007 0.166016H10.6314ZM8.74343 1.4101C8.83031 1.32322 8.96197 1.25174 9.26961 1.21037C9.59164 1.16708 10.0233 1.16602 10.666 1.16602C11.3087 1.16602 11.7404 1.16708 12.0624 1.21037C12.3701 1.25174 12.5017 1.32322 12.5886 1.4101C12.6755 1.49697 12.747 1.62864 12.7883 1.93628C12.8316 2.2583 12.8327 2.69001 12.8327 3.33268C12.8327 3.97536 12.8316 4.40706 12.7883 4.72909C12.747 5.03673 12.6755 5.1684 12.5886 5.25527C12.5017 5.34215 12.3701 5.41363 12.0624 5.45499C11.7404 5.49829 11.3087 5.49935 10.666 5.49935C10.0233 5.49935 9.59164 5.49829 9.26961 5.45499C8.96197 5.41363 8.83031 5.34215 8.74343 5.25527C8.65655 5.1684 8.58507 5.03673 8.54371 4.72909C8.50041 4.40706 8.49935 3.97536 8.49935 3.33268C8.49935 2.69001 8.50041 2.2583 8.54371 1.93628C8.58507 1.62864 8.65655 1.49697 8.74343 1.4101Z" fill="#00A2EB"/>
</svg>
