<svg width="10" height="10" viewBox="0 0 10 10" fill="none" xmlns="http://www.w3.org/2000/svg">
<path opacity="0.2" d="M9.5 5C9.5 5.89002 9.23608 6.76005 8.74162 7.50007C8.24715 8.24009 7.54434 8.81686 6.72208 9.15746C5.89981 9.49805 4.99501 9.58717 4.1221 9.41353C3.24918 9.2399 2.44736 8.81132 1.81802 8.18198C1.18869 7.55264 0.760102 6.75082 0.586468 5.87791C0.412835 5.00499 0.50195 4.10019 0.842544 3.27792C1.18314 2.45566 1.75991 1.75285 2.49994 1.25839C3.23996 0.763921 4.10999 0.5 5 0.5C6.19348 0.5 7.33807 0.974106 8.18198 1.81802C9.0259 2.66193 9.5 3.80653 9.5 5Z" fill="#00A2EB"/>
<path d="M6.125 5C6.125 5.2225 6.05902 5.44001 5.9354 5.62502C5.81179 5.81002 5.63609 5.95422 5.43052 6.03936C5.22495 6.12451 4.99875 6.14679 4.78052 6.10338C4.5623 6.05998 4.36184 5.95283 4.20451 5.79549C4.04717 5.63816 3.94003 5.43771 3.89662 5.21948C3.85321 5.00125 3.87549 4.77505 3.96064 4.56948C4.04578 4.36391 4.18998 4.18821 4.37498 4.0646C4.55999 3.94098 4.7775 3.875 5 3.875C5.29837 3.875 5.58452 3.99353 5.7955 4.2045C6.00647 4.41548 6.125 4.70163 6.125 5Z" fill="#00A2EB"/>
</svg>
