<svg width="16" height="16" viewBox="0 0 16 16" fill="none" xmlns="http://www.w3.org/2000/svg">
<path d="M2.66602 3.5C2.66602 3.10218 2.82405 2.72064 3.10536 2.43934C3.38666 2.15804 3.76819 2 4.16602 2H10.4993C10.8972 2 11.2787 2.15804 11.56 2.43934C11.8413 2.72064 11.9993 3.10218 11.9993 3.5V9.33333H14.666V11.8333C14.666 12.1179 14.61 12.3996 14.5011 12.6625C14.3922 12.9254 14.2326 13.1642 14.0314 13.3654C13.8302 13.5666 13.5914 13.7262 13.3285 13.8351C13.0656 13.944 12.7839 14 12.4993 14H8.63268C8.6549 13.892 8.66602 13.7809 8.66602 13.6667V13H10.9993V3.5C10.9993 3.36739 10.9467 3.24021 10.8529 3.14645C10.7591 3.05268 10.632 3 10.4993 3H4.16602C4.03341 3 3.90623 3.05268 3.81246 3.14645C3.71869 3.24021 3.66602 3.36739 3.66602 3.5V9.33333H2.66602V3.5ZM11.9993 13H12.4993C12.8088 13 13.1055 12.8771 13.3243 12.6583C13.5431 12.4395 13.666 12.1428 13.666 11.8333V10.3333H11.9993V13ZM5.49935 4.66667C5.36674 4.66667 5.23956 4.71935 5.1458 4.81311C5.05203 4.90688 4.99935 5.03406 4.99935 5.16667C4.99935 5.29927 5.05203 5.42645 5.1458 5.52022C5.23956 5.61399 5.36674 5.66667 5.49935 5.66667H9.16602C9.29862 5.66667 9.4258 5.61399 9.51957 5.52022C9.61334 5.42645 9.66602 5.29927 9.66602 5.16667C9.66602 5.03406 9.61334 4.90688 9.51957 4.81311C9.4258 4.71935 9.29862 4.66667 9.16602 4.66667H5.49935ZM4.99935 7.83333C4.99935 7.70073 5.05203 7.57355 5.1458 7.47978C5.23956 7.38601 5.36674 7.33333 5.49935 7.33333H9.16602C9.29862 7.33333 9.4258 7.38601 9.51957 7.47978C9.61334 7.57355 9.66602 7.70073 9.66602 7.83333C9.66602 7.96594 9.61334 8.09312 9.51957 8.18689C9.4258 8.28065 9.29862 8.33333 9.16602 8.33333H5.49935C5.36674 8.33333 5.23956 8.28065 5.1458 8.18689C5.05203 8.09312 4.99935 7.96594 4.99935 7.83333ZM1.66602 10C1.4008 10 1.14645 10.1054 0.958909 10.2929C0.771372 10.4804 0.666016 10.7348 0.666016 11V13.6667C0.666016 13.9319 0.771372 14.1862 0.958909 14.3738C1.14645 14.5613 1.4008 14.6667 1.66602 14.6667H6.99935C7.26457 14.6667 7.51892 14.5613 7.70646 14.3738C7.89399 14.1862 7.99935 13.9319 7.99935 13.6667V11C7.99935 10.7348 7.89399 10.4804 7.70646 10.2929C7.51892 10.1054 7.26457 10 6.99935 10H1.66602ZM6.66602 10.6667C6.66602 10.8435 6.73625 11.013 6.86128 11.1381C6.9863 11.2631 7.15587 11.3333 7.33268 11.3333V12C6.97906 12 6.63992 11.8595 6.38987 11.6095C6.13983 11.3594 5.99935 11.0203 5.99935 10.6667H6.66602ZM5.99935 14C5.99935 13.6464 6.13983 13.3072 6.38987 13.0572C6.63992 12.8071 6.97906 12.6667 7.33268 12.6667V13.3333C7.15587 13.3333 6.9863 13.4036 6.86128 13.5286C6.73625 13.6536 6.66602 13.8232 6.66602 14H5.99935ZM1.33268 11.3333C1.50949 11.3333 1.67906 11.2631 1.80409 11.1381C1.92911 11.013 1.99935 10.8435 1.99935 10.6667H2.66602C2.66602 11.0203 2.52554 11.3594 2.27549 11.6095C2.02544 11.8595 1.6863 12 1.33268 12V11.3333ZM1.33268 12.6667C1.6863 12.6667 2.02544 12.8071 2.27549 13.0572C2.52554 13.3072 2.66602 13.6464 2.66602 14H1.99935C1.99935 13.8232 1.92911 13.6536 1.80409 13.5286C1.67906 13.4036 1.50949 13.3333 1.33268 13.3333V12.6667ZM4.33268 11.1667C4.6421 11.1667 4.93885 11.2896 5.15764 11.5084C5.37643 11.7272 5.49935 12.0239 5.49935 12.3333C5.49935 12.6428 5.37643 12.9395 5.15764 13.1583C4.93885 13.3771 4.6421 13.5 4.33268 13.5C4.02326 13.5 3.72652 13.3771 3.50772 13.1583C3.28893 12.9395 3.16602 12.6428 3.16602 12.3333C3.16602 12.0239 3.28893 11.7272 3.50772 11.5084C3.72652 11.2896 4.02326 11.1667 4.33268 11.1667Z" fill="#4D6FA8"/>
</svg>
