<svg width="24" height="24" viewBox="0 0 24 24" fill="none" xmlns="http://www.w3.org/2000/svg">
<path d="M4.79998 4.19998C4.79998 3.8686 4.53135 3.59998 4.19998 3.59998C3.8686 3.59998 3.59998 3.8686 3.59998 4.19998V19.8C3.59998 20.1313 3.8686 20.4 4.19998 20.4H19.8C20.1313 20.4 20.4 20.1313 20.4 19.8C20.4 19.4686 20.1313 19.2 19.8 19.2H4.79998V4.19998Z" fill="#8BA3CB"/>
<path d="M19.0243 10.0242C19.2586 9.78984 19.2585 9.40994 19.0242 9.17566C18.7898 8.94137 18.4099 8.94142 18.1757 9.17576L14.2067 13.1458C14.1927 13.1597 14.1761 13.1708 14.1579 13.1784C14.1397 13.1859 14.1202 13.1898 14.1005 13.1898C14.0808 13.1898 14.0613 13.1859 14.043 13.1784C14.0248 13.1708 14.0083 13.1598 13.9944 13.1458L12.0554 11.2068C11.93 11.0815 11.7811 10.9819 11.6173 10.914C11.4534 10.8461 11.2778 10.8111 11.1005 10.8111C10.9231 10.8111 10.7475 10.8461 10.5837 10.914C10.4199 10.9818 10.2711 11.0813 10.1458 11.2067L6.17576 15.1757C5.94142 15.4099 5.94137 15.7898 6.17566 16.0242C6.40994 16.2585 6.78984 16.2586 7.02419 16.0243L10.9942 12.0553C11.0081 12.0414 11.0248 12.0301 11.043 12.0226C11.0613 12.015 11.0808 12.0111 11.1005 12.0111C11.1202 12.0111 11.1397 12.015 11.1579 12.0226C11.1761 12.0301 11.1926 12.0412 11.2066 12.0551L13.1456 13.9941C13.2709 14.1196 13.4198 14.2191 13.5837 14.287C13.7475 14.3549 13.9231 14.3898 14.1005 14.3898C14.2778 14.3898 14.4535 14.3549 14.6173 14.287C14.7811 14.2191 14.9299 14.1196 15.0553 13.9942L19.0243 10.0242Z" fill="#8BA3CB"/>
</svg>
