<svg width="16" height="16" viewBox="0 0 16 16" fill="none" xmlns="http://www.w3.org/2000/svg">
<g clip-path="url(#clip0_3651_58136)">
<path d="M10.0007 2C10.3543 2 10.6934 2.14048 10.9435 2.39052C11.1935 2.64057 11.334 2.97971 11.334 3.33333V6H12.6673C13.0209 6 13.3601 6.14048 13.6101 6.39052C13.8602 6.64057 14.0007 6.97971 14.0007 7.33333V12.6667C14.1775 12.6667 14.347 12.7369 14.4721 12.8619C14.5971 12.987 14.6673 13.1565 14.6673 13.3333C14.6673 13.5101 14.5971 13.6797 14.4721 13.8047C14.347 13.9298 14.1775 14 14.0007 14H2.00065C1.82384 14 1.65427 13.9298 1.52925 13.8047C1.40422 13.6797 1.33398 13.5101 1.33398 13.3333C1.33398 13.1565 1.40422 12.987 1.52925 12.8619C1.65427 12.7369 1.82384 12.6667 2.00065 12.6667V6C2.00065 5.64638 2.14113 5.30724 2.39118 5.05719C2.64122 4.80714 2.98036 4.66667 3.33398 4.66667H4.66732V3.33333C4.66732 2.97971 4.80779 2.64057 5.05784 2.39052C5.30789 2.14048 5.64703 2 6.00065 2H10.0007ZM4.66732 6H3.33398V12.6667H4.66732V6ZM12.6673 7.33333H11.334V12.6667H12.6673V7.33333ZM10.0007 3.33333H6.00065V12.6667H10.0007V3.33333ZM8.66732 10V11.3333H7.33398V10H8.66732ZM8.66732 7.33333V8.66667H7.33398V7.33333H8.66732ZM8.66732 4.66667V6H7.33398V4.66667H8.66732Z" fill="#4D6FA8"/>
</g>
<defs>
<clipPath id="clip0_3651_58136">
<rect width="16" height="16" fill="white"/>
</clipPath>
</defs>
</svg>
