<svg width="16" height="16" viewBox="0 0 16 16" fill="none" xmlns="http://www.w3.org/2000/svg">
<path d="M13.334 4.00065C13.7207 4.00065 14.034 4.13398 14.2807 4.39398C14.534 4.66732 14.6673 4.96732 14.6673 5.33398V12.6673C14.6673 13.034 14.534 13.334 14.2807 13.6073C14.034 13.8673 13.7207 14.0007 13.334 14.0007H2.66732C2.28065 14.0007 1.96732 13.8673 1.72065 13.6073C1.46732 13.334 1.33398 13.034 1.33398 12.6673V5.33398C1.33398 4.96732 1.46732 4.66732 1.72065 4.39398C1.96732 4.13398 2.28065 4.00065 2.66732 4.00065H5.33398V2.66732C5.33398 2.28065 5.46732 1.96732 5.72065 1.72065C5.96732 1.46732 6.28065 1.33398 6.66732 1.33398H9.33398C9.72065 1.33398 10.034 1.46732 10.2807 1.72065C10.534 1.96732 10.6673 2.28065 10.6673 2.66732V4.00065H13.334ZM2.66732 5.33398V12.6673H13.334V5.33398H2.66732ZM9.33398 4.00065V2.66732H6.66732V4.00065H9.33398Z" fill="#4D6FA8"/>
</svg>
