<svg width="16" height="16" viewBox="0 0 16 16" fill="none" xmlns="http://www.w3.org/2000/svg">
<path d="M8.00065 9.33398C8.1325 9.33398 8.2614 9.29488 8.37103 9.22163C8.48066 9.14838 8.56611 9.04426 8.61657 8.92244C8.66703 8.80062 8.68023 8.66658 8.65451 8.53726C8.62878 8.40794 8.56529 8.28915 8.47205 8.19591C8.37882 8.10268 8.26003 8.03918 8.13071 8.01346C8.00139 7.98774 7.86735 8.00094 7.74553 8.0514C7.62371 8.10186 7.51959 8.1873 7.44634 8.29694C7.37308 8.40657 7.33398 8.53546 7.33398 8.66732C7.33398 8.84413 7.40422 9.0137 7.52925 9.13872C7.65427 9.26375 7.82384 9.33398 8.00065 9.33398ZM11.334 9.33398C11.4658 9.33398 11.5947 9.29488 11.7044 9.22163C11.814 9.14838 11.8994 9.04426 11.9499 8.92244C12.0004 8.80062 12.0136 8.66658 11.9878 8.53726C11.9621 8.40794 11.8986 8.28915 11.8054 8.19591C11.7122 8.10268 11.5934 8.03918 11.464 8.01346C11.3347 7.98774 11.2007 8.00094 11.0789 8.0514C10.957 8.10186 10.8529 8.1873 10.7797 8.29694C10.7064 8.40657 10.6673 8.53546 10.6673 8.66732C10.6673 8.84413 10.7376 9.0137 10.8626 9.13872C10.9876 9.26375 11.1572 9.33398 11.334 9.33398ZM8.00065 12.0007C8.1325 12.0007 8.2614 11.9616 8.37103 11.8883C8.48066 11.815 8.56611 11.7109 8.61657 11.5891C8.66703 11.4673 8.68023 11.3332 8.65451 11.2039C8.62878 11.0746 8.56529 10.9558 8.47205 10.8626C8.37882 10.7693 8.26003 10.7059 8.13071 10.6801C8.00139 10.6544 7.86735 10.6676 7.74553 10.7181C7.62371 10.7685 7.51959 10.854 7.44634 10.9636C7.37308 11.0732 7.33398 11.2021 7.33398 11.334C7.33398 11.5108 7.40422 11.6804 7.52925 11.8054C7.65427 11.9304 7.82384 12.0007 8.00065 12.0007ZM11.334 12.0007C11.4658 12.0007 11.5947 11.9616 11.7044 11.8883C11.814 11.815 11.8994 11.7109 11.9499 11.5891C12.0004 11.4673 12.0136 11.3332 11.9878 11.2039C11.9621 11.0746 11.8986 10.9558 11.8054 10.8626C11.7122 10.7693 11.5934 10.7059 11.464 10.6801C11.3347 10.6544 11.2007 10.6676 11.0789 10.7181C10.957 10.7685 10.8529 10.854 10.7797 10.9636C10.7064 11.0732 10.6673 11.2021 10.6673 11.334C10.6673 11.5108 10.7376 11.6804 10.8626 11.8054C10.9876 11.9304 11.1572 12.0007 11.334 12.0007ZM4.66732 9.33398C4.79917 9.33398 4.92806 9.29488 5.0377 9.22163C5.14733 9.14838 5.23278 9.04426 5.28324 8.92244C5.3337 8.80062 5.3469 8.66658 5.32117 8.53726C5.29545 8.40794 5.23196 8.28915 5.13872 8.19591C5.04549 8.10268 4.9267 8.03918 4.79738 8.01346C4.66806 7.98774 4.53401 8.00094 4.4122 8.0514C4.29038 8.10186 4.18626 8.1873 4.113 8.29694C4.03975 8.40657 4.00065 8.53546 4.00065 8.66732C4.00065 8.84413 4.07089 9.0137 4.19591 9.13872C4.32094 9.26375 4.49051 9.33398 4.66732 9.33398ZM12.6673 2.66732H12.0007V2.00065C12.0007 1.82384 11.9304 1.65427 11.8054 1.52925C11.6804 1.40422 11.5108 1.33398 11.334 1.33398C11.1572 1.33398 10.9876 1.40422 10.8626 1.52925C10.7376 1.65427 10.6673 1.82384 10.6673 2.00065V2.66732H5.33398V2.00065C5.33398 1.82384 5.26375 1.65427 5.13872 1.52925C5.0137 1.40422 4.84413 1.33398 4.66732 1.33398C4.49051 1.33398 4.32094 1.40422 4.19591 1.52925C4.07089 1.65427 4.00065 1.82384 4.00065 2.00065V2.66732H3.33398C2.80355 2.66732 2.29484 2.87803 1.91977 3.2531C1.5447 3.62818 1.33398 4.13688 1.33398 4.66732V12.6673C1.33398 13.1978 1.5447 13.7065 1.91977 14.0815C2.29484 14.4566 2.80355 14.6673 3.33398 14.6673H12.6673C13.1978 14.6673 13.7065 14.4566 14.0815 14.0815C14.4566 13.7065 14.6673 13.1978 14.6673 12.6673V4.66732C14.6673 4.13688 14.4566 3.62818 14.0815 3.2531C13.7065 2.87803 13.1978 2.66732 12.6673 2.66732ZM13.334 12.6673C13.334 12.8441 13.2637 13.0137 13.1387 13.1387C13.0137 13.2637 12.8441 13.334 12.6673 13.334H3.33398C3.15717 13.334 2.9876 13.2637 2.86258 13.1387C2.73756 13.0137 2.66732 12.8441 2.66732 12.6673V6.66732H13.334V12.6673ZM13.334 5.33398H2.66732V4.66732C2.66732 4.49051 2.73756 4.32094 2.86258 4.19591C2.9876 4.07089 3.15717 4.00065 3.33398 4.00065H12.6673C12.8441 4.00065 13.0137 4.07089 13.1387 4.19591C13.2637 4.32094 13.334 4.49051 13.334 4.66732V5.33398ZM4.66732 12.0007C4.79917 12.0007 4.92806 11.9616 5.0377 11.8883C5.14733 11.815 5.23278 11.7109 5.28324 11.5891C5.3337 11.4673 5.3469 11.3332 5.32117 11.2039C5.29545 11.0746 5.23196 10.9558 5.13872 10.8626C5.04549 10.7693 4.9267 10.7059 4.79738 10.6801C4.66806 10.6544 4.53401 10.6676 4.4122 10.7181C4.29038 10.7685 4.18626 10.854 4.113 10.9636C4.03975 11.0732 4.00065 11.2021 4.00065 11.334C4.00065 11.5108 4.07089 11.6804 4.19591 11.8054C4.32094 11.9304 4.49051 12.0007 4.66732 12.0007Z" fill="#4D6FA8"/>
</svg>
