<svg width="24" height="24" viewBox="0 0 24 24" fill="none" xmlns="http://www.w3.org/2000/svg">
<path fill-rule="evenodd" clip-rule="evenodd" d="M11.2757 12.6778C11.5029 12.7815 11.75 12.8349 12 12.8343C12.25 12.8349 12.4972 12.7815 12.7243 12.6778L20.7611 8.92109C21.2724 8.68696 21.6 8.17844 21.6 7.61876C21.6 7.05908 21.2724 6.55056 20.7611 6.31643L12.7243 2.55973C12.2652 2.34679 11.7348 2.34679 11.2757 2.55973L3.23899 6.31643C2.72762 6.55056 2.40002 7.05908 2.40002 7.61876C2.40002 8.17844 2.72762 8.68696 3.23899 8.92109L11.2757 12.6778ZM3.65835 7.62502C3.65835 7.55031 3.70438 7.48323 3.77435 7.45597L11.8111 3.69926C11.932 3.64917 12.068 3.64917 12.189 3.69926L20.2257 7.45597C20.2957 7.48323 20.3417 7.55031 20.3417 7.62502C20.3417 7.69973 20.2957 7.76681 20.2257 7.79407L12.189 11.5508C12.068 11.6009 11.932 11.6009 11.8111 11.5508L3.77435 7.79407C3.70438 7.76681 3.65835 7.69973 3.65835 7.62502ZM12.0756 17.2172C11.832 17.2151 11.5916 17.1617 11.3702 17.0606L2.84219 13.1098C2.55179 12.9513 2.43458 12.5962 2.57405 12.2974C2.71353 11.9987 3.06198 11.8584 3.37125 11.9765L11.8867 15.9273C12.0076 15.9774 12.1436 15.9774 12.2646 15.9273L20.6288 12.0454C20.9381 11.9273 21.2865 12.0676 21.426 12.3663C21.5655 12.6651 21.4483 13.0202 21.1579 13.1787L12.7936 17.0606C12.5689 17.165 12.3236 17.2185 12.0756 17.2172ZM11.3702 21.4434C11.5916 21.5445 11.832 21.5979 12.0756 21.6C12.3236 21.6013 12.5689 21.5478 12.7936 21.4434L21.1579 17.5615C21.4483 17.403 21.5655 17.0479 21.426 16.7491C21.2865 16.4504 20.9381 16.3101 20.6288 16.4282L12.2646 20.3102C12.1436 20.3603 12.0076 20.3603 11.8867 20.3102L3.37125 16.3594C3.06198 16.2412 2.71353 16.3815 2.57405 16.6803C2.43458 16.979 2.55179 17.3341 2.84219 17.4926L11.3702 21.4434Z" fill="#8BA3CB"/>
</svg>
